<svg width="24" height="24" viewBox="0 0 24 24" fill="none" xmlns="http://www.w3.org/2000/svg">
<path d="M13 7C13 6.44772 12.5523 6 12 6C11.4477 6 11 6.44772 11 7V10C11 10.5523 10.5523 11 10 11H7C6.44772 11 6 11.4477 6 12C6 12.5523 6.44772 13 7 13H10C10.5523 13 11 13.4477 11 14V17C11 17.5523 11.4477 18 12 18C12.5523 18 13 17.5523 13 17V14C13 13.4477 13.4477 13 14 13H17C17.5523 13 18 12.5523 18 12C18 11.4477 17.5523 11 17 11H14C13.4477 11 13 10.5523 13 10V7Z"/>
<path fill-rule="evenodd" clip-rule="evenodd" d="M12 24C18.6274 24 24 18.6274 24 12C24 5.37258 18.6274 0 12 0C5.37258 0 0 5.37258 0 12C0 18.6274 5.37258 24 12 24ZM12 22C17.5228 22 22 17.5228 22 12C22 6.47715 17.5228 2 12 2C6.47715 2 2 6.47715 2 12C2 17.5228 6.47715 22 12 22Z"/>
</svg>
