<svg width="130" height="130" viewBox="0 0 130 130" fill="none" xmlns="http://www.w3.org/2000/svg">
<mask id="path-1-inside-1" fill="white">
<path d="M23.5355 52.5269C21.5829 50.5743 21.5829 47.4085 23.5355 45.4559L45.4558 23.5356C47.4084 21.5829 50.5742 21.5829 52.5269 23.5355L56.0625 27.0711C58.0151 29.0237 58.0151 32.1896 56.0625 34.1422L34.1421 56.0625C32.1895 58.0151 29.0237 58.0151 27.071 56.0625L23.5355 52.5269Z"/>
<path d="M77.2755 59.598C79.2281 61.5506 82.394 61.5507 84.3466 59.598L89.6878 54.2569C90.9007 53.0439 92.6506 52.5994 94.3647 52.6663C98.3973 52.8237 102.481 51.363 105.56 48.2844C108.019 45.8249 109.446 42.7238 109.84 39.5199C110.115 37.2836 107.507 36.4381 105.913 38.0313C102.99 40.955 98.2527 40.9602 95.3225 38.047L95.3068 38.0313L95.291 38.0155C92.3778 35.0854 92.3831 30.3484 95.3068 27.4247C97.1585 25.573 96.2942 22.511 93.6847 22.7312C90.2789 23.0185 86.9526 24.4651 84.3466 27.0712C81.0395 30.3783 79.5995 34.8454 80.0265 39.1628C80.2089 41.0069 79.8004 42.931 78.4901 44.2414L73.74 48.9914C71.7874 50.9441 71.7874 54.1099 73.74 56.0625L77.2755 59.598Z"/>
<path d="M38.7225 94.5841C35.7924 91.6709 31.0553 91.6761 28.1317 94.5998C26.0456 96.6859 22.6108 95.6925 23.0008 92.7682C23.421 89.6184 24.8413 86.5764 27.2618 84.1559C30.569 80.8488 35.0361 79.4088 39.3534 79.8358C41.1976 80.0182 43.1217 79.6097 44.4321 78.2993L48.9913 73.7401C50.9439 71.7875 54.1098 71.7875 56.0624 73.7402L59.5979 77.2757C61.5505 79.2283 61.5505 82.3941 59.5979 84.3468L54.4476 89.4971C53.2346 90.71 52.7901 92.4599 52.857 94.174C53.0143 98.2066 51.5537 102.29 48.4751 105.369C46.2009 107.643 43.3782 109.035 40.4328 109.543C37.9002 109.98 36.921 107.024 38.7383 105.206C41.662 102.283 41.6672 97.5458 38.754 94.6156C38.7488 94.6104 38.7435 94.6051 38.7383 94.5998C38.733 94.5946 38.7278 94.5893 38.7225 94.5841Z"/>
<path d="M96.3674 99.9031C94.4148 101.856 91.249 101.856 89.2964 99.9031L46.87 57.4767C44.9174 55.5241 44.9174 52.3582 46.87 50.4056L50.4055 46.8701C52.3581 44.9175 55.524 44.9175 57.4766 46.8701L99.903 89.2965C101.856 91.2491 101.856 94.4149 99.903 96.3676L96.3674 99.9031Z"/>
</mask>
<path d="M23.5355 52.5269C21.5829 50.5743 21.5829 47.4085 23.5355 45.4559L45.4558 23.5356C47.4084 21.5829 50.5742 21.5829 52.5269 23.5355L56.0625 27.0711C58.0151 29.0237 58.0151 32.1896 56.0625 34.1422L34.1421 56.0625C32.1895 58.0151 29.0237 58.0151 27.071 56.0625L23.5355 52.5269Z" stroke-width="10" mask="url(#path-1-inside-1)"/>
<path d="M77.2755 59.598C79.2281 61.5506 82.394 61.5507 84.3466 59.598L89.6878 54.2569C90.9007 53.0439 92.6506 52.5994 94.3647 52.6663C98.3973 52.8237 102.481 51.363 105.56 48.2844C108.019 45.8249 109.446 42.7238 109.84 39.5199C110.115 37.2836 107.507 36.4381 105.913 38.0313C102.99 40.955 98.2527 40.9602 95.3225 38.047L95.3068 38.0313L95.291 38.0155C92.3778 35.0854 92.3831 30.3484 95.3068 27.4247C97.1585 25.573 96.2942 22.511 93.6847 22.7312C90.2789 23.0185 86.9526 24.4651 84.3466 27.0712C81.0395 30.3783 79.5995 34.8454 80.0265 39.1628C80.2089 41.0069 79.8004 42.931 78.4901 44.2414L73.74 48.9914C71.7874 50.9441 71.7874 54.1099 73.74 56.0625L77.2755 59.598Z" stroke-width="10" mask="url(#path-1-inside-1)"/>
<path d="M38.7225 94.5841C35.7924 91.6709 31.0553 91.6761 28.1317 94.5998C26.0456 96.6859 22.6108 95.6925 23.0008 92.7682C23.421 89.6184 24.8413 86.5764 27.2618 84.1559C30.569 80.8488 35.0361 79.4088 39.3534 79.8358C41.1976 80.0182 43.1217 79.6097 44.4321 78.2993L48.9913 73.7401C50.9439 71.7875 54.1098 71.7875 56.0624 73.7402L59.5979 77.2757C61.5505 79.2283 61.5505 82.3941 59.5979 84.3468L54.4476 89.4971C53.2346 90.71 52.7901 92.4599 52.857 94.174C53.0143 98.2066 51.5537 102.29 48.4751 105.369C46.2009 107.643 43.3782 109.035 40.4328 109.543C37.9002 109.98 36.921 107.024 38.7383 105.206C41.662 102.283 41.6672 97.5458 38.754 94.6156C38.7488 94.6104 38.7435 94.6051 38.7383 94.5998C38.733 94.5946 38.7278 94.5893 38.7225 94.5841Z" stroke-width="10" mask="url(#path-1-inside-1)"/>
<path d="M96.3674 99.9031C94.4148 101.856 91.249 101.856 89.2964 99.9031L46.87 57.4767C44.9174 55.5241 44.9174 52.3582 46.87 50.4056L50.4055 46.8701C52.3581 44.9175 55.524 44.9175 57.4766 46.8701L99.903 89.2965C101.856 91.2491 101.856 94.4149 99.903 96.3676L96.3674 99.9031Z" stroke-width="10" mask="url(#path-1-inside-1)"/>
<mask id="path-2-inside-2" fill="white">
<path d="M36.6421 121.642C39.7264 118.558 45 120.742 45 125.104C45 127.808 47.192 130 49.8959 130H80.1041C82.808 130 85 127.808 85 125.104C85 120.742 90.3255 118.61 93.4098 121.694C95.3386 123.623 98.4875 123.645 100.416 121.716L121.716 100.416C123.645 98.4875 123.623 95.3386 121.694 93.4098C118.61 90.3255 120.742 85 125.104 85C127.808 85 130 82.808 130 80.1041V49.8959C130 47.192 127.808 45 125.104 45C120.742 45 118.558 39.7264 121.642 36.6421C123.554 34.7302 123.554 31.6302 121.642 29.7183L100.282 8.35787C98.3697 6.4459 95.2698 6.44589 93.3578 8.35787C90.2736 11.4421 85 9.25771 85 4.89592C85 2.19198 82.808 0 80.1041 0H49.8959C47.192 0 45 2.22265 45 4.92659C45 9.24998 39.7728 11.4885 36.7157 8.43145C34.8206 6.53631 31.748 6.53631 29.8528 8.43145L8.43146 29.8528C6.53632 31.748 6.53631 34.8206 8.43145 36.7157C11.4885 39.7728 9.24999 45 4.92659 45C2.22265 45 0 47.192 0 49.8959V80.1041C0 82.808 2.19197 85 4.89591 85C9.2577 85 11.4421 90.2736 8.35783 93.3579C6.44585 95.2698 6.44584 98.3698 8.35782 100.282L29.7182 121.642C31.6302 123.554 34.7301 123.554 36.6421 121.642Z"/>
</mask>
<path d="M36.6421 121.642C39.7264 118.558 45 120.742 45 125.104C45 127.808 47.192 130 49.8959 130H80.1041C82.808 130 85 127.808 85 125.104C85 120.742 90.3255 118.61 93.4098 121.694C95.3386 123.623 98.4875 123.645 100.416 121.716L121.716 100.416C123.645 98.4875 123.623 95.3386 121.694 93.4098C118.61 90.3255 120.742 85 125.104 85C127.808 85 130 82.808 130 80.1041V49.8959C130 47.192 127.808 45 125.104 45C120.742 45 118.558 39.7264 121.642 36.6421C123.554 34.7302 123.554 31.6302 121.642 29.7183L100.282 8.35787C98.3697 6.4459 95.2698 6.44589 93.3578 8.35787C90.2736 11.4421 85 9.25771 85 4.89592C85 2.19198 82.808 0 80.1041 0H49.8959C47.192 0 45 2.22265 45 4.92659C45 9.24998 39.7728 11.4885 36.7157 8.43145C34.8206 6.53631 31.748 6.53631 29.8528 8.43145L8.43146 29.8528C6.53632 31.748 6.53631 34.8206 8.43145 36.7157C11.4885 39.7728 9.24999 45 4.92659 45C2.22265 45 0 47.192 0 49.8959V80.1041C0 82.808 2.19197 85 4.89591 85C9.2577 85 11.4421 90.2736 8.35783 93.3579C6.44585 95.2698 6.44584 98.3698 8.35782 100.282L29.7182 121.642C31.6302 123.554 34.7301 123.554 36.6421 121.642Z" stroke-width="10" mask="url(#path-2-inside-2)"/>
</svg>
