<svg width="24" height="24" viewBox="0 0 24 24" fill="none" xmlns="http://www.w3.org/2000/svg">
<path d="M11.5147 23H12.4853C13.8741 23 15 21.8741 15 20.4853C15 20.0267 15.5544 19.7971 15.8787 20.1213C16.8607 21.1034 18.4529 21.1034 19.435 20.1213L20.1213 19.435C21.1034 18.453 21.1034 16.8607 20.1213 15.8787C19.7971 15.5544 20.0267 15 20.4853 15C21.8741 15 23 13.8741 23 12.4853V11.5147C23 10.1259 21.8741 9 20.4853 9C20.0267 9 19.7971 8.44557 20.1213 8.12132C21.1034 7.13927 21.1034 5.54704 20.1213 4.56498L19.435 3.87869C18.453 2.89663 16.8607 2.89662 15.8787 3.87869C15.5544 4.20294 15 3.97329 15 3.51472C15 2.12588 13.8741 1 12.4853 1H11.5147C10.1259 1 9 2.12588 9 3.51472C9 3.97329 8.44557 4.20294 8.12132 3.87869C7.13926 2.89662 5.54702 2.89663 4.56496 3.87869L3.87867 4.56498C2.89662 5.54704 2.89662 7.13927 3.87868 8.12132C4.20293 8.44558 3.97328 9 3.51472 9C2.12588 9 1 10.1259 1 11.5147V12.4853C1 13.8741 2.12588 15 3.51472 15C3.97329 15 4.20294 15.5544 3.87868 15.8787C2.89662 16.8607 2.89662 18.453 3.87868 19.435L4.56496 20.1213C5.54702 21.1034 7.13926 21.1034 8.12132 20.1213C8.44558 19.7971 9 20.0267 9 20.4853C9 21.8741 10.1259 23 11.5147 23Z" stroke-width="2"/>
<circle cx="12" cy="12" r="3.4" stroke-width="2"/>
</svg>
